<svg width="318" height="122" viewBox="0 0 318 122" fill="none" xmlns="http://www.w3.org/2000/svg">
<g filter="url(#filter0_d)">
<rect x="49.042" y="14" width="65.3463" height="65.3463" rx="5" transform="rotate(30 49.042 14)" fill="white"/>
</g>
<path d="M45.1071 67.263H51V75.4244H45.1071V86.458H34.7857V75.4244H13.4643L13 69.0494L34.6786 35.458H45.1071V67.263ZM23.2857 67.263H34.7857V49.2588L34.1071 50.4147L23.2857 67.263Z" fill="#38B2AC" fill-opacity="0.25"/>
<path d="M46.5117 39.368L48.826 27.3835H52.3566L48.5427 44.2266H44.9767L42.1783 32.9593L39.3798 44.2266H35.8139L32 27.3835H35.5305L37.8566 39.3449L40.6905 27.3835H43.6897L46.5117 39.368Z" fill="black" fill-opacity="0.3"/>
<path d="M59.5593 44.458C57.6858 44.458 56.1587 43.895 54.9779 42.7691C53.805 41.6431 53.2185 40.1431 53.2185 38.2691V37.9452C53.2185 36.6881 53.4665 35.566 53.9624 34.5788C54.4583 33.584 55.1589 32.8205 56.0642 32.2883C56.9773 31.7485 58.0164 31.4786 59.1814 31.4786C60.929 31.4786 62.3026 32.0184 63.3023 33.0981C64.3099 34.1778 64.8137 35.7087 64.8137 37.6907V39.0557H56.6782C56.7884 39.8732 57.119 40.5287 57.67 41.0223C58.2289 41.5158 58.9335 41.7626 59.7836 41.7626C61.0982 41.7626 62.1255 41.2961 62.8655 40.3629L64.5422 42.2022C64.0305 42.9117 63.3378 43.467 62.464 43.868C61.5902 44.2614 60.622 44.458 59.5593 44.458ZM59.1696 34.1855C58.4927 34.1855 57.9416 34.4092 57.5165 34.8565C57.0993 35.3038 56.8317 35.9439 56.7136 36.7768H61.4603V36.5107C61.4446 35.7703 61.2399 35.1997 60.8463 34.7986C60.4527 34.3899 59.8938 34.1855 59.1696 34.1855Z" fill="black" fill-opacity="0.3"/>
<path d="M72.6423 44.458C70.7688 44.458 69.2416 43.895 68.0609 42.7691C66.888 41.6431 66.3015 40.1431 66.3015 38.2691V37.9452C66.3015 36.6881 66.5495 35.566 67.0454 34.5788C67.5413 33.584 68.2419 32.8205 69.1472 32.2883C70.0603 31.7485 71.0994 31.4786 72.2644 31.4786C74.012 31.4786 75.3856 32.0184 76.3853 33.0981C77.3929 34.1778 77.8967 35.7087 77.8967 37.6907V39.0557H69.7612C69.8714 39.8732 70.202 40.5287 70.753 41.0223C71.3119 41.5158 72.0165 41.7626 72.8666 41.7626C74.1812 41.7626 75.2085 41.2961 75.9484 40.3629L77.6251 42.2022C77.1135 42.9117 76.4208 43.467 75.547 43.868C74.6732 44.2614 73.705 44.458 72.6423 44.458ZM72.2526 34.1855C71.5756 34.1855 71.0246 34.4092 70.5995 34.8565C70.1823 35.3038 69.9147 35.9439 69.7966 36.7768H74.5433V36.5107C74.5276 35.7703 74.3229 35.1997 73.9293 34.7986C73.5357 34.3899 72.9768 34.1855 72.2526 34.1855Z" fill="black" fill-opacity="0.3"/>
<path d="M84.4855 39.2061L83.2574 40.4092V44.2266H79.845V26.458H83.2574V36.3025L83.9187 35.4696L87.1894 31.7099H91.2867L86.6699 36.9272L91.6882 44.2266H87.768L84.4855 39.2061Z" fill="black" fill-opacity="0.3"/>
<path d="M99.682 40.7678C99.682 40.359 99.4734 40.039 99.0562 39.8076C98.6469 39.5685 97.9856 39.3565 97.0725 39.1714C94.034 38.5467 92.5147 37.2819 92.5147 35.377C92.5147 34.2665 92.9831 33.341 93.9198 32.6007C94.8645 31.8526 96.0964 31.4786 97.6157 31.4786C99.2373 31.4786 100.532 31.8526 101.5 32.6007C102.477 33.3488 102.965 34.3205 102.965 35.5158H99.5521C99.5521 35.0377 99.3947 34.6444 99.0798 34.3359C98.765 34.0197 98.273 33.8616 97.6039 33.8616C97.0292 33.8616 96.5845 33.9889 96.2696 34.2434C95.9547 34.4979 95.7973 34.8218 95.7973 35.2151C95.7973 35.5853 95.9744 35.886 96.3286 36.1174C96.6907 36.341 97.2969 36.5377 98.147 36.7074C98.9972 36.8693 99.7135 37.0544 100.296 37.2626C102.099 37.9105 103 39.0326 103 40.629C103 41.7703 102.5 42.6958 101.5 43.4053C100.501 44.1071 99.2097 44.458 97.6275 44.458C96.5569 44.458 95.6044 44.2729 94.77 43.9027C93.9435 43.5248 93.294 43.012 92.8217 42.3642C92.3494 41.7087 92.1133 41.003 92.1133 40.2472H95.3486C95.3801 40.841 95.6044 41.2961 96.0216 41.6122C96.4388 41.9284 96.9977 42.0865 97.6983 42.0865C98.3517 42.0865 98.8437 41.967 99.1743 41.7279C99.5128 41.4811 99.682 41.1611 99.682 40.7678Z" fill="black" fill-opacity="0.3"/>
<g opacity="0.75">
<path d="M31.3789 54.9964H27.0801C25.9313 54.9964 25 55.9277 25 57.0765C25 58.2252 25.9313 59.1566 27.0801 59.1566H31.3789C32.5277 59.1566 33.459 58.2252 33.459 57.0765C33.459 55.9277 32.5277 54.9964 31.3789 54.9964Z" fill="black"/>
<path d="M37.0098 51.4454L32.8497 47.2853C32.0375 46.4731 30.7204 46.4731 29.908 47.2853C29.0957 48.0976 29.0957 49.4146 29.908 50.2269L34.0682 54.3871C34.8805 55.1994 36.1975 55.1994 37.0098 54.3871C37.8222 53.5749 37.8222 52.2578 37.0098 51.4454Z" fill="black"/>
<path d="M37.01 59.7657C36.1977 58.9535 34.8805 58.9535 34.0683 59.7657L29.9082 63.9259C29.0958 64.7382 29.0958 66.0552 29.9082 66.8676C30.7205 67.6799 32.0375 67.6799 32.8498 66.8676L37.01 62.7074C37.8223 61.8951 37.8223 60.5781 37.01 59.7657Z" fill="black"/>
<path d="M97.9372 56.8811C97.9371 56.8808 97.9371 56.8806 97.937 56.8804C96.3974 53.8048 92.6419 52.5528 89.5678 54.0885L77.2245 60.2314C77.5029 59.4014 77.656 58.5146 77.656 57.592C77.656 53.0042 73.9235 49.2717 69.3357 49.2717C65.169 49.2717 61.7083 52.3506 61.1081 56.3529L47.385 49.4914C46.0056 48.8013 44.3748 49.8056 44.3748 51.3517V67.9923C44.3748 69.5434 46.0108 70.54 47.3851 69.8529L48.655 69.2179C48.7633 69.7544 48.9419 70.2804 49.1933 70.7834L53.3535 79.1037C54.9153 82.2273 58.6775 83.419 61.7262 81.8946L65.1757 80.1698V83.6189L57.1755 107.619C56.0828 110.895 57.8531 114.424 61.1188 115.513C64.3755 116.604 67.9198 114.856 69.0159 111.568L73.496 98.1274L77.9762 111.568C79.0794 114.877 82.6388 116.596 85.8711 115.514C89.1433 114.422 90.9079 110.891 89.8167 107.62L81.8163 83.619V71.855L95.1463 65.2538C98.2241 63.715 99.4762 59.9589 97.9372 56.8811ZM69.3358 53.4317C71.6297 53.4317 73.496 55.298 73.496 57.5919C73.496 59.8858 71.6297 61.7521 69.3358 61.7521C67.0419 61.7521 65.1757 59.8858 65.1757 57.5919C65.1757 55.298 67.0419 53.4317 69.3358 53.4317ZM62.4832 62.3036C63.4951 63.7706 64.9649 64.8967 66.6846 65.4765L61.728 67.9432L60.3571 65.2013C60.1032 64.6934 59.7877 64.2364 59.4259 63.8323L62.4832 62.3036ZM50.1181 63.8349L48.535 64.6266V54.7172L58.4444 59.6718L54.2335 61.7773C52.6249 61.9153 51.1587 62.6699 50.1181 63.8349ZM93.2931 61.5294L78.8132 68.7C78.1046 69.0509 77.6562 69.7733 77.6562 70.564V83.9565C77.6562 84.1801 77.6922 84.4022 77.7629 84.6142L85.8703 108.936C86.2328 110.023 85.6502 111.202 84.5522 111.568C83.4644 111.933 82.287 111.345 81.923 110.252L75.4693 90.8918C75.1861 90.0424 74.3913 89.4694 73.496 89.4694C72.6007 89.4694 71.8059 90.0423 71.5227 90.8918L65.0692 110.252C64.7076 111.337 63.536 111.935 62.4377 111.568C61.3491 111.204 60.7573 110.029 61.1221 108.935L69.2291 84.6142C69.2998 84.4021 69.3358 84.1801 69.3358 83.9565V76.8042C69.3358 75.2589 67.7059 74.2536 66.3255 74.9437L59.8659 78.1735C58.855 78.6788 57.5972 78.2884 57.0746 77.243L52.9144 68.9227C52.4013 67.8966 52.8187 66.6444 53.8441 66.1316C54.8709 65.6188 56.1236 66.0361 56.6362 67.0617L58.9357 71.6606C59.4486 72.6866 60.6956 73.1036 61.723 72.5926L91.4242 57.8114C92.4503 57.2989 93.7032 57.7163 94.2167 58.7423C94.7292 59.7682 94.3118 61.02 93.2931 61.5294Z" fill="#38B2AC" fill-opacity="0.1"/>
<path d="M95.3417 54.2856C95.3416 54.2853 95.3416 54.2851 95.3414 54.2849C93.8019 51.2093 90.0464 49.9573 86.9723 51.493L74.629 57.6359C74.9074 56.8059 75.0605 55.9191 75.0605 54.9965C75.0605 50.4087 71.328 46.6762 66.7402 46.6762C62.5735 46.6762 59.1128 49.7551 58.5126 53.7574L44.7895 46.8959C43.4101 46.2058 41.7793 47.2101 41.7793 48.7561V65.3968C41.7793 66.9479 43.4152 67.9445 44.7896 67.2574L46.0594 66.6224C46.1677 67.1589 46.3464 67.6849 46.5978 68.1879L50.7579 76.5082C52.3198 79.6318 56.082 80.8235 59.1307 79.2991L62.5801 77.5743V81.0234L54.58 105.024C53.4873 108.299 55.2576 111.828 58.5233 112.918C61.78 114.008 65.3243 112.26 66.4204 108.972L70.9005 95.5319L75.3807 108.972C76.4838 112.282 80.0433 114.001 83.2756 112.919C86.5478 111.827 88.3124 108.296 87.2212 105.024L79.2208 81.0235V69.2595L92.5508 62.6583C95.6286 61.1195 96.8807 57.3634 95.3417 54.2856ZM66.7403 50.8362C69.0342 50.8362 70.9005 52.7025 70.9005 54.9964C70.9005 57.2903 69.0342 59.1566 66.7403 59.1566C64.4464 59.1566 62.5801 57.2903 62.5801 54.9964C62.5801 52.7025 64.4464 50.8362 66.7403 50.8362ZM59.8877 59.7081C60.8996 61.1751 62.3694 62.3012 64.089 62.881L59.1325 65.3477L57.7616 62.6058C57.5077 62.0979 57.1922 61.6409 56.8304 61.2368L59.8877 59.7081ZM47.5226 61.2394L45.9395 62.0311V52.1217L55.8489 57.0763L51.6379 59.1818C50.0293 59.3198 48.5632 60.0744 47.5226 61.2394ZM90.6976 58.9339L76.2177 66.1045C75.5091 66.4554 75.0606 67.1778 75.0606 67.9685V81.361C75.0606 81.5846 75.0967 81.8067 75.1674 82.0187L83.2747 106.34C83.6372 107.427 83.0547 108.607 81.9567 108.973C80.8689 109.337 79.6915 108.749 79.3274 107.657L72.8738 88.2963C72.5906 87.4469 71.7957 86.8739 70.9005 86.8739C70.0052 86.8739 69.2103 87.4468 68.9272 88.2963L62.4736 107.657C62.1121 108.742 60.9405 109.34 59.8422 108.972C58.7536 108.609 58.1618 107.434 58.5266 106.34L66.6335 82.0187C66.7043 81.8066 66.7403 81.5846 66.7403 81.361V74.2087C66.7403 72.6634 65.1104 71.6581 63.73 72.3482L57.2704 75.578C56.2595 76.0833 55.0017 75.6929 54.4791 74.6475L50.3189 66.3272C49.8058 65.3011 50.2232 64.0489 51.2486 63.5361C52.2754 63.0233 53.528 63.4406 54.0407 64.4662L56.3402 69.0651C56.8531 70.0911 58.1001 70.5081 59.1275 69.9971L88.8287 55.2159C89.8547 54.7034 91.1076 55.1208 91.6211 56.1468C92.1337 57.1727 91.7163 58.4245 90.6976 58.9339Z" fill="black"/>
</g>
<path d="M128.156 69.4844H121.992L120.82 73H117.082L123.434 55.9375H126.691L133.078 73H129.34L128.156 69.4844ZM122.941 66.6367H127.207L125.062 60.25L122.941 66.6367Z" fill="#222A31"/>
<path d="M135.375 73V62.8047H133.488V60.3203H135.375V59.2422C135.375 57.8203 135.781 56.7188 136.594 55.9375C137.414 55.1484 138.559 54.7539 140.027 54.7539C140.496 54.7539 141.07 54.832 141.75 54.9883L141.715 57.6133C141.434 57.543 141.09 57.5078 140.684 57.5078C139.41 57.5078 138.773 58.1055 138.773 59.3008V60.3203H142.945V59.7344C142.961 58.1406 143.449 56.9141 144.41 56.0547C145.379 55.1875 146.742 54.7539 148.5 54.7539C149.547 54.7539 150.832 54.9844 152.355 55.4453L151.863 58.2461C151.098 58.0195 150.5 57.875 150.07 57.8125C149.648 57.7422 149.195 57.707 148.711 57.707C147.133 57.707 146.344 58.4062 146.344 59.8047V60.3203H148.84V62.8047H146.344V73H142.945V62.8047H138.773V73H135.375ZM153.926 73H150.527V60.3203H153.926V73Z" fill="#222A31"/>
<path d="M160.312 73H156.914V55H160.312V73Z" fill="#222A31"/>
<path d="M166.688 73H163.289V60.3203H166.688V73ZM163.09 57.0391C163.09 56.5312 163.258 56.1133 163.594 55.7852C163.938 55.457 164.402 55.293 164.988 55.293C165.566 55.293 166.027 55.457 166.371 55.7852C166.715 56.1133 166.887 56.5312 166.887 57.0391C166.887 57.5547 166.711 57.9766 166.359 58.3047C166.016 58.6328 165.559 58.7969 164.988 58.7969C164.418 58.7969 163.957 58.6328 163.605 58.3047C163.262 57.9766 163.09 57.5547 163.09 57.0391Z" fill="#222A31"/>
<path d="M176.836 73C176.68 72.6953 176.566 72.3164 176.496 71.8633C175.676 72.7773 174.609 73.2344 173.297 73.2344C172.055 73.2344 171.023 72.875 170.203 72.1562C169.391 71.4375 168.984 70.5312 168.984 69.4375C168.984 68.0938 169.48 67.0625 170.473 66.3438C171.473 65.625 172.914 65.2617 174.797 65.2539H176.355V64.5273C176.355 63.9414 176.203 63.4727 175.898 63.1211C175.602 62.7695 175.129 62.5938 174.48 62.5938C173.91 62.5938 173.461 62.7305 173.133 63.0039C172.812 63.2773 172.652 63.6523 172.652 64.1289H169.266C169.266 63.3945 169.492 62.7148 169.945 62.0898C170.398 61.4648 171.039 60.9766 171.867 60.625C172.695 60.2656 173.625 60.0859 174.656 60.0859C176.219 60.0859 177.457 60.4805 178.371 61.2695C179.293 62.0508 179.754 63.1523 179.754 64.5742V70.0703C179.762 71.2734 179.93 72.1836 180.258 72.8008V73H176.836ZM174.035 70.6445C174.535 70.6445 174.996 70.5352 175.418 70.3164C175.84 70.0898 176.152 69.7891 176.355 69.4141V67.2344H175.09C173.395 67.2344 172.492 67.8203 172.383 68.9922L172.371 69.1914C172.371 69.6133 172.52 69.9609 172.816 70.2344C173.113 70.5078 173.52 70.6445 174.035 70.6445Z" fill="#222A31"/>
<path d="M186.41 57.2031V60.3203H188.578V62.8047H186.41V69.1328C186.41 69.6016 186.5 69.9375 186.68 70.1406C186.859 70.3438 187.203 70.4453 187.711 70.4453C188.086 70.4453 188.418 70.418 188.707 70.3633V72.9297C188.043 73.1328 187.359 73.2344 186.656 73.2344C184.281 73.2344 183.07 72.0352 183.023 69.6367V62.8047H181.172V60.3203H183.023V57.2031H186.41Z" fill="#222A31"/>
<path d="M196.301 73.2344C194.441 73.2344 192.926 72.6641 191.754 71.5234C190.59 70.3828 190.008 68.8633 190.008 66.9648V66.6367C190.008 65.3633 190.254 64.2266 190.746 63.2266C191.238 62.2188 191.934 61.4453 192.832 60.9062C193.738 60.3594 194.77 60.0859 195.926 60.0859C197.66 60.0859 199.023 60.6328 200.016 61.7266C201.016 62.8203 201.516 64.3711 201.516 66.3789V67.7617H193.441C193.551 68.5898 193.879 69.2539 194.426 69.7539C194.98 70.2539 195.68 70.5039 196.523 70.5039C197.828 70.5039 198.848 70.0312 199.582 69.0859L201.246 70.9492C200.738 71.668 200.051 72.2305 199.184 72.6367C198.316 73.0352 197.355 73.2344 196.301 73.2344ZM195.914 62.8281C195.242 62.8281 194.695 63.0547 194.273 63.5078C193.859 63.9609 193.594 64.6094 193.477 65.4531H198.188V65.1836C198.172 64.4336 197.969 63.8555 197.578 63.4492C197.188 63.0352 196.633 62.8281 195.914 62.8281Z" fill="#222A31"/>
<path d="M209.648 73V55.9375H215.625C217.695 55.9375 219.266 56.3359 220.336 57.1328C221.406 57.9219 221.941 59.082 221.941 60.6133C221.941 61.4492 221.727 62.1875 221.297 62.8281C220.867 63.4609 220.27 63.9258 219.504 64.2227C220.379 64.4414 221.066 64.8828 221.566 65.5469C222.074 66.2109 222.328 67.0234 222.328 67.9844C222.328 69.625 221.805 70.8672 220.758 71.7109C219.711 72.5547 218.219 72.9844 216.281 73H209.648ZM213.164 65.5703V70.1758H216.176C217.004 70.1758 217.648 69.9805 218.109 69.5898C218.578 69.1914 218.812 68.6445 218.812 67.9492C218.812 66.3867 218.004 65.5938 216.387 65.5703H213.164ZM213.164 63.0859H215.766C217.539 63.0547 218.426 62.3477 218.426 60.9648C218.426 60.1914 218.199 59.6367 217.746 59.3008C217.301 58.957 216.594 58.7852 215.625 58.7852H213.164V63.0859Z" fill="#222A31"/>
<path d="M224.227 66.543C224.227 65.2852 224.469 64.1641 224.953 63.1797C225.438 62.1953 226.133 61.4336 227.039 60.8945C227.953 60.3555 229.012 60.0859 230.215 60.0859C231.926 60.0859 233.32 60.6094 234.398 61.6562C235.484 62.7031 236.09 64.125 236.215 65.9219L236.238 66.7891C236.238 68.7344 235.695 70.2969 234.609 71.4766C233.523 72.6484 232.066 73.2344 230.238 73.2344C228.41 73.2344 226.949 72.6484 225.855 71.4766C224.77 70.3047 224.227 68.7109 224.227 66.6953V66.543ZM227.613 66.7891C227.613 67.9922 227.84 68.9141 228.293 69.5547C228.746 70.1875 229.395 70.5039 230.238 70.5039C231.059 70.5039 231.699 70.1914 232.16 69.5664C232.621 68.9336 232.852 67.9258 232.852 66.543C232.852 65.3633 232.621 64.4492 232.16 63.8008C231.699 63.1523 231.051 62.8281 230.215 62.8281C229.387 62.8281 228.746 63.1523 228.293 63.8008C227.84 64.4414 227.613 65.4375 227.613 66.7891Z" fill="#222A31"/>
<path d="M237.797 66.543C237.797 65.2852 238.039 64.1641 238.523 63.1797C239.008 62.1953 239.703 61.4336 240.609 60.8945C241.523 60.3555 242.582 60.0859 243.785 60.0859C245.496 60.0859 246.891 60.6094 247.969 61.6562C249.055 62.7031 249.66 64.125 249.785 65.9219L249.809 66.7891C249.809 68.7344 249.266 70.2969 248.18 71.4766C247.094 72.6484 245.637 73.2344 243.809 73.2344C241.98 73.2344 240.52 72.6484 239.426 71.4766C238.34 70.3047 237.797 68.7109 237.797 66.6953V66.543ZM241.184 66.7891C241.184 67.9922 241.41 68.9141 241.863 69.5547C242.316 70.1875 242.965 70.5039 243.809 70.5039C244.629 70.5039 245.27 70.1914 245.73 69.5664C246.191 68.9336 246.422 67.9258 246.422 66.543C246.422 65.3633 246.191 64.4492 245.73 63.8008C245.27 63.1523 244.621 62.8281 243.785 62.8281C242.957 62.8281 242.316 63.1523 241.863 63.8008C241.41 64.4414 241.184 65.4375 241.184 66.7891Z" fill="#222A31"/>
<path d="M255.949 57.2031V60.3203H258.117V62.8047H255.949V69.1328C255.949 69.6016 256.039 69.9375 256.219 70.1406C256.398 70.3438 256.742 70.4453 257.25 70.4453C257.625 70.4453 257.957 70.418 258.246 70.3633V72.9297C257.582 73.1328 256.898 73.2344 256.195 73.2344C253.82 73.2344 252.609 72.0352 252.562 69.6367V62.8047H250.711V60.3203H252.562V57.2031H255.949Z" fill="#222A31"/>
<path d="M265.277 70.5039C265.902 70.5039 266.41 70.332 266.801 69.9883C267.191 69.6445 267.395 69.1875 267.41 68.6172H270.586C270.578 69.4766 270.344 70.2656 269.883 70.9844C269.422 71.6953 268.789 72.25 267.984 72.6484C267.188 73.0391 266.305 73.2344 265.336 73.2344C263.523 73.2344 262.094 72.6602 261.047 71.5117C260 70.3555 259.477 68.7617 259.477 66.7305V66.5078C259.477 64.5547 259.996 62.9961 261.035 61.832C262.074 60.668 263.5 60.0859 265.312 60.0859C266.898 60.0859 268.168 60.5391 269.121 61.4453C270.082 62.3438 270.57 63.543 270.586 65.043H267.41C267.395 64.3867 267.191 63.8555 266.801 63.4492C266.41 63.0352 265.895 62.8281 265.254 62.8281C264.465 62.8281 263.867 63.1172 263.461 63.6953C263.062 64.2656 262.863 65.1953 262.863 66.4844V66.8359C262.863 68.1406 263.062 69.0781 263.461 69.6484C263.859 70.2188 264.465 70.5039 265.277 70.5039Z" fill="#222A31"/>
<path d="M279.867 73C279.711 72.6953 279.598 72.3164 279.527 71.8633C278.707 72.7773 277.641 73.2344 276.328 73.2344C275.086 73.2344 274.055 72.875 273.234 72.1562C272.422 71.4375 272.016 70.5312 272.016 69.4375C272.016 68.0938 272.512 67.0625 273.504 66.3438C274.504 65.625 275.945 65.2617 277.828 65.2539H279.387V64.5273C279.387 63.9414 279.234 63.4727 278.93 63.1211C278.633 62.7695 278.16 62.5938 277.512 62.5938C276.941 62.5938 276.492 62.7305 276.164 63.0039C275.844 63.2773 275.684 63.6523 275.684 64.1289H272.297C272.297 63.3945 272.523 62.7148 272.977 62.0898C273.43 61.4648 274.07 60.9766 274.898 60.625C275.727 60.2656 276.656 60.0859 277.688 60.0859C279.25 60.0859 280.488 60.4805 281.402 61.2695C282.324 62.0508 282.785 63.1523 282.785 64.5742V70.0703C282.793 71.2734 282.961 72.1836 283.289 72.8008V73H279.867ZM277.066 70.6445C277.566 70.6445 278.027 70.5352 278.449 70.3164C278.871 70.0898 279.184 69.7891 279.387 69.4141V67.2344H278.121C276.426 67.2344 275.523 67.8203 275.414 68.9922L275.402 69.1914C275.402 69.6133 275.551 69.9609 275.848 70.2344C276.145 70.5078 276.551 70.6445 277.066 70.6445Z" fill="#222A31"/>
<path d="M288.562 60.3203L288.668 61.7383C289.566 60.6367 290.781 60.0859 292.312 60.0859C293.945 60.0859 295.066 60.7305 295.676 62.0195C296.566 60.7305 297.836 60.0859 299.484 60.0859C300.859 60.0859 301.883 60.4883 302.555 61.293C303.227 62.0898 303.562 63.293 303.562 64.9023V73H300.164V64.9141C300.164 64.1953 300.023 63.6719 299.742 63.3438C299.461 63.0078 298.965 62.8398 298.254 62.8398C297.238 62.8398 296.535 63.3242 296.145 64.293L296.156 73H292.77V64.9258C292.77 64.1914 292.625 63.6602 292.336 63.332C292.047 63.0039 291.555 62.8398 290.859 62.8398C289.898 62.8398 289.203 63.2383 288.773 64.0352V73H285.387V60.3203H288.562Z" fill="#222A31"/>
<path d="M317.59 66.7773C317.59 68.7305 317.145 70.2969 316.254 71.4766C315.371 72.6484 314.176 73.2344 312.668 73.2344C311.387 73.2344 310.352 72.7891 309.562 71.8984V77.875H306.176V60.3203H309.316L309.434 61.5625C310.254 60.5781 311.324 60.0859 312.645 60.0859C314.207 60.0859 315.422 60.6641 316.289 61.8203C317.156 62.9766 317.59 64.5703 317.59 66.6016V66.7773ZM314.203 66.5312C314.203 65.3516 313.992 64.4414 313.57 63.8008C313.156 63.1602 312.551 62.8398 311.754 62.8398C310.691 62.8398 309.961 63.2461 309.562 64.0586V69.25C309.977 70.0859 310.715 70.5039 311.777 70.5039C313.395 70.5039 314.203 69.1797 314.203 66.5312Z" fill="#222A31"/>
<defs>
<filter id="filter0_d" x="0.368835" y="0" width="121.265" height="121.265" filterUnits="userSpaceOnUse" color-interpolation-filters="sRGB">
<feFlood flood-opacity="0" result="BackgroundImageFix"/>
<feColorMatrix in="SourceAlpha" type="matrix" values="0 0 0 0 0 0 0 0 0 0 0 0 0 0 0 0 0 0 127 0"/>
<feOffset dy="2"/>
<feGaussianBlur stdDeviation="8"/>
<feColorMatrix type="matrix" values="0 0 0 0 0 0 0 0 0 0 0 0 0 0 0 0 0 0 0.1 0"/>
<feBlend mode="normal" in2="BackgroundImageFix" result="effect1_dropShadow"/>
<feBlend mode="normal" in="SourceGraphic" in2="effect1_dropShadow" result="shape"/>
</filter>
</defs>
</svg>
