<svg width="320" height="122" viewBox="0 0 320 122" fill="none" xmlns="http://www.w3.org/2000/svg">
<path d="M123.523 65V47.9375H129.5C131.57 47.9375 133.141 48.3359 134.211 49.1328C135.281 49.9219 135.816 51.082 135.816 52.6133C135.816 53.4492 135.602 54.1875 135.172 54.8281C134.742 55.4609 134.145 55.9258 133.379 56.2227C134.254 56.4414 134.941 56.8828 135.441 57.5469C135.949 58.2109 136.203 59.0234 136.203 59.9844C136.203 61.625 135.68 62.8672 134.633 63.7109C133.586 64.5547 132.094 64.9844 130.156 65H123.523ZM127.039 57.5703V62.1758H130.051C130.879 62.1758 131.523 61.9805 131.984 61.5898C132.453 61.1914 132.688 60.6445 132.688 59.9492C132.688 58.3867 131.879 57.5938 130.262 57.5703H127.039ZM127.039 55.0859H129.641C131.414 55.0547 132.301 54.3477 132.301 52.9648C132.301 52.1914 132.074 51.6367 131.621 51.3008C131.176 50.957 130.469 50.7852 129.5 50.7852H127.039V55.0859Z" fill="#222A31"/>
<path d="M146.223 63.7109C145.387 64.7266 144.23 65.2344 142.754 65.2344C141.395 65.2344 140.355 64.8438 139.637 64.0625C138.926 63.2812 138.562 62.1367 138.547 60.6289V52.3203H141.934V60.5117C141.934 61.832 142.535 62.4922 143.738 62.4922C144.887 62.4922 145.676 62.0938 146.105 61.2969V52.3203H149.504V65H146.316L146.223 63.7109Z" fill="#222A31"/>
<path d="M158.926 61.4961C158.926 61.082 158.719 60.7578 158.305 60.5234C157.898 60.2812 157.242 60.0664 156.336 59.8789C153.32 59.2461 151.812 57.9648 151.812 56.0352C151.812 54.9102 152.277 53.9727 153.207 53.2227C154.145 52.4648 155.367 52.0859 156.875 52.0859C158.484 52.0859 159.77 52.4648 160.73 53.2227C161.699 53.9805 162.184 54.9648 162.184 56.1758H158.797C158.797 55.6914 158.641 55.293 158.328 54.9805C158.016 54.6602 157.527 54.5 156.863 54.5C156.293 54.5 155.852 54.6289 155.539 54.8867C155.227 55.1445 155.07 55.4727 155.07 55.8711C155.07 56.2461 155.246 56.5508 155.598 56.7852C155.957 57.0117 156.559 57.2109 157.402 57.3828C158.246 57.5469 158.957 57.7344 159.535 57.9453C161.324 58.6016 162.219 59.7383 162.219 61.3555C162.219 62.5117 161.723 63.4492 160.73 64.168C159.738 64.8789 158.457 65.2344 156.887 65.2344C155.824 65.2344 154.879 65.0469 154.051 64.6719C153.23 64.2891 152.586 63.7695 152.117 63.1133C151.648 62.4492 151.414 61.7344 151.414 60.9688H154.625C154.656 61.5703 154.879 62.0312 155.293 62.3516C155.707 62.6719 156.262 62.832 156.957 62.832C157.605 62.832 158.094 62.7109 158.422 62.4688C158.758 62.2188 158.926 61.8945 158.926 61.4961Z" fill="#222A31"/>
<path d="M167.984 65H164.586V52.3203H167.984V65ZM164.387 49.0391C164.387 48.5312 164.555 48.1133 164.891 47.7852C165.234 47.457 165.699 47.293 166.285 47.293C166.863 47.293 167.324 47.457 167.668 47.7852C168.012 48.1133 168.184 48.5312 168.184 49.0391C168.184 49.5547 168.008 49.9766 167.656 50.3047C167.312 50.6328 166.855 50.7969 166.285 50.7969C165.715 50.7969 165.254 50.6328 164.902 50.3047C164.559 49.9766 164.387 49.5547 164.387 49.0391Z" fill="#222A31"/>
<path d="M173.902 52.3203L174.008 53.7852C174.914 52.6523 176.129 52.0859 177.652 52.0859C178.996 52.0859 179.996 52.4805 180.652 53.2695C181.309 54.0586 181.645 55.2383 181.66 56.8086V65H178.273V56.8906C178.273 56.1719 178.117 55.6523 177.805 55.332C177.492 55.0039 176.973 54.8398 176.246 54.8398C175.293 54.8398 174.578 55.2461 174.102 56.0586V65H170.715V52.3203H173.902Z" fill="#222A31"/>
<path d="M190.074 65.2344C188.215 65.2344 186.699 64.6641 185.527 63.5234C184.363 62.3828 183.781 60.8633 183.781 58.9648V58.6367C183.781 57.3633 184.027 56.2266 184.52 55.2266C185.012 54.2188 185.707 53.4453 186.605 52.9062C187.512 52.3594 188.543 52.0859 189.699 52.0859C191.434 52.0859 192.797 52.6328 193.789 53.7266C194.789 54.8203 195.289 56.3711 195.289 58.3789V59.7617H187.215C187.324 60.5898 187.652 61.2539 188.199 61.7539C188.754 62.2539 189.453 62.5039 190.297 62.5039C191.602 62.5039 192.621 62.0312 193.355 61.0859L195.02 62.9492C194.512 63.668 193.824 64.2305 192.957 64.6367C192.09 65.0352 191.129 65.2344 190.074 65.2344ZM189.688 54.8281C189.016 54.8281 188.469 55.0547 188.047 55.5078C187.633 55.9609 187.367 56.6094 187.25 57.4531H191.961V57.1836C191.945 56.4336 191.742 55.8555 191.352 55.4492C190.961 55.0352 190.406 54.8281 189.688 54.8281Z" fill="#222A31"/>
<path d="M204.09 61.4961C204.09 61.082 203.883 60.7578 203.469 60.5234C203.062 60.2812 202.406 60.0664 201.5 59.8789C198.484 59.2461 196.977 57.9648 196.977 56.0352C196.977 54.9102 197.441 53.9727 198.371 53.2227C199.309 52.4648 200.531 52.0859 202.039 52.0859C203.648 52.0859 204.934 52.4648 205.895 53.2227C206.863 53.9805 207.348 54.9648 207.348 56.1758H203.961C203.961 55.6914 203.805 55.293 203.492 54.9805C203.18 54.6602 202.691 54.5 202.027 54.5C201.457 54.5 201.016 54.6289 200.703 54.8867C200.391 55.1445 200.234 55.4727 200.234 55.8711C200.234 56.2461 200.41 56.5508 200.762 56.7852C201.121 57.0117 201.723 57.2109 202.566 57.3828C203.41 57.5469 204.121 57.7344 204.699 57.9453C206.488 58.6016 207.383 59.7383 207.383 61.3555C207.383 62.5117 206.887 63.4492 205.895 64.168C204.902 64.8789 203.621 65.2344 202.051 65.2344C200.988 65.2344 200.043 65.0469 199.215 64.6719C198.395 64.2891 197.75 63.7695 197.281 63.1133C196.812 62.4492 196.578 61.7344 196.578 60.9688H199.789C199.82 61.5703 200.043 62.0312 200.457 62.3516C200.871 62.6719 201.426 62.832 202.121 62.832C202.77 62.832 203.258 62.7109 203.586 62.4688C203.922 62.2188 204.09 61.8945 204.09 61.4961Z" fill="#222A31"/>
<path d="M216.441 61.4961C216.441 61.082 216.234 60.7578 215.82 60.5234C215.414 60.2812 214.758 60.0664 213.852 59.8789C210.836 59.2461 209.328 57.9648 209.328 56.0352C209.328 54.9102 209.793 53.9727 210.723 53.2227C211.66 52.4648 212.883 52.0859 214.391 52.0859C216 52.0859 217.285 52.4648 218.246 53.2227C219.215 53.9805 219.699 54.9648 219.699 56.1758H216.312C216.312 55.6914 216.156 55.293 215.844 54.9805C215.531 54.6602 215.043 54.5 214.379 54.5C213.809 54.5 213.367 54.6289 213.055 54.8867C212.742 55.1445 212.586 55.4727 212.586 55.8711C212.586 56.2461 212.762 56.5508 213.113 56.7852C213.473 57.0117 214.074 57.2109 214.918 57.3828C215.762 57.5469 216.473 57.7344 217.051 57.9453C218.84 58.6016 219.734 59.7383 219.734 61.3555C219.734 62.5117 219.238 63.4492 218.246 64.168C217.254 64.8789 215.973 65.2344 214.402 65.2344C213.34 65.2344 212.395 65.0469 211.566 64.6719C210.746 64.2891 210.102 63.7695 209.633 63.1133C209.164 62.4492 208.93 61.7344 208.93 60.9688H212.141C212.172 61.5703 212.395 62.0312 212.809 62.3516C213.223 62.6719 213.777 62.832 214.473 62.832C215.121 62.832 215.609 62.7109 215.938 62.4688C216.273 62.2188 216.441 61.8945 216.441 61.4961Z" fill="#222A31"/>
<path d="M231.641 58.9883V65H228.125V47.9375H234.781C236.062 47.9375 237.188 48.1719 238.156 48.6406C239.133 49.1094 239.883 49.7773 240.406 50.6445C240.93 51.5039 241.191 52.4844 241.191 53.5859C241.191 55.2578 240.617 56.5781 239.469 57.5469C238.328 58.5078 236.746 58.9883 234.723 58.9883H231.641ZM231.641 56.1406H234.781C235.711 56.1406 236.418 55.9219 236.902 55.4844C237.395 55.0469 237.641 54.4219 237.641 53.6094C237.641 52.7734 237.395 52.0977 236.902 51.582C236.41 51.0664 235.73 50.8008 234.863 50.7852H231.641V56.1406Z" fill="#222A31"/>
<path d="M250.602 65C250.445 64.6953 250.332 64.3164 250.262 63.8633C249.441 64.7773 248.375 65.2344 247.062 65.2344C245.82 65.2344 244.789 64.875 243.969 64.1562C243.156 63.4375 242.75 62.5312 242.75 61.4375C242.75 60.0938 243.246 59.0625 244.238 58.3438C245.238 57.625 246.68 57.2617 248.562 57.2539H250.121V56.5273C250.121 55.9414 249.969 55.4727 249.664 55.1211C249.367 54.7695 248.895 54.5938 248.246 54.5938C247.676 54.5938 247.227 54.7305 246.898 55.0039C246.578 55.2773 246.418 55.6523 246.418 56.1289H243.031C243.031 55.3945 243.258 54.7148 243.711 54.0898C244.164 53.4648 244.805 52.9766 245.633 52.625C246.461 52.2656 247.391 52.0859 248.422 52.0859C249.984 52.0859 251.223 52.4805 252.137 53.2695C253.059 54.0508 253.52 55.1523 253.52 56.5742V62.0703C253.527 63.2734 253.695 64.1836 254.023 64.8008V65H250.602ZM247.801 62.6445C248.301 62.6445 248.762 62.5352 249.184 62.3164C249.605 62.0898 249.918 61.7891 250.121 61.4141V59.2344H248.855C247.16 59.2344 246.258 59.8203 246.148 60.9922L246.137 61.1914C246.137 61.6133 246.285 61.9609 246.582 62.2344C246.879 62.5078 247.285 62.6445 247.801 62.6445Z" fill="#222A31"/>
<path d="M261.395 62.5039C262.02 62.5039 262.527 62.332 262.918 61.9883C263.309 61.6445 263.512 61.1875 263.527 60.6172H266.703C266.695 61.4766 266.461 62.2656 266 62.9844C265.539 63.6953 264.906 64.25 264.102 64.6484C263.305 65.0391 262.422 65.2344 261.453 65.2344C259.641 65.2344 258.211 64.6602 257.164 63.5117C256.117 62.3555 255.594 60.7617 255.594 58.7305V58.5078C255.594 56.5547 256.113 54.9961 257.152 53.832C258.191 52.668 259.617 52.0859 261.43 52.0859C263.016 52.0859 264.285 52.5391 265.238 53.4453C266.199 54.3438 266.688 55.543 266.703 57.043H263.527C263.512 56.3867 263.309 55.8555 262.918 55.4492C262.527 55.0352 262.012 54.8281 261.371 54.8281C260.582 54.8281 259.984 55.1172 259.578 55.6953C259.18 56.2656 258.98 57.1953 258.98 58.4844V58.8359C258.98 60.1406 259.18 61.0781 259.578 61.6484C259.977 62.2188 260.582 62.5039 261.395 62.5039Z" fill="#222A31"/>
<path d="M273.242 59.9141L272.023 61.1328V65H268.637V47H272.023V56.9727L272.68 56.1289L275.926 52.3203H279.992L275.41 57.6055L280.391 65H276.5L273.242 59.9141Z" fill="#222A31"/>
<path d="M288.805 65C288.648 64.6953 288.535 64.3164 288.465 63.8633C287.645 64.7773 286.578 65.2344 285.266 65.2344C284.023 65.2344 282.992 64.875 282.172 64.1562C281.359 63.4375 280.953 62.5312 280.953 61.4375C280.953 60.0938 281.449 59.0625 282.441 58.3438C283.441 57.625 284.883 57.2617 286.766 57.2539H288.324V56.5273C288.324 55.9414 288.172 55.4727 287.867 55.1211C287.57 54.7695 287.098 54.5938 286.449 54.5938C285.879 54.5938 285.43 54.7305 285.102 55.0039C284.781 55.2773 284.621 55.6523 284.621 56.1289H281.234C281.234 55.3945 281.461 54.7148 281.914 54.0898C282.367 53.4648 283.008 52.9766 283.836 52.625C284.664 52.2656 285.594 52.0859 286.625 52.0859C288.188 52.0859 289.426 52.4805 290.34 53.2695C291.262 54.0508 291.723 55.1523 291.723 56.5742V62.0703C291.73 63.2734 291.898 64.1836 292.227 64.8008V65H288.805ZM286.004 62.6445C286.504 62.6445 286.965 62.5352 287.387 62.3164C287.809 62.0898 288.121 61.7891 288.324 61.4141V59.2344H287.059C285.363 59.2344 284.461 59.8203 284.352 60.9922L284.34 61.1914C284.34 61.6133 284.488 61.9609 284.785 62.2344C285.082 62.5078 285.488 62.6445 286.004 62.6445Z" fill="#222A31"/>
<path d="M293.832 58.5664C293.832 56.6211 294.293 55.0547 295.215 53.8672C296.145 52.6797 297.395 52.0859 298.965 52.0859C300.355 52.0859 301.438 52.5625 302.211 53.5156L302.352 52.3203H305.422V64.5781C305.422 65.6875 305.168 66.6523 304.66 67.4727C304.16 68.293 303.453 68.918 302.539 69.3477C301.625 69.7773 300.555 69.9922 299.328 69.9922C298.398 69.9922 297.492 69.8047 296.609 69.4297C295.727 69.0625 295.059 68.5859 294.605 68L296.105 65.9375C296.949 66.8828 297.973 67.3555 299.176 67.3555C300.074 67.3555 300.773 67.1133 301.273 66.6289C301.773 66.1523 302.023 65.4727 302.023 64.5898V63.9102C301.242 64.793 300.215 65.2344 298.941 65.2344C297.418 65.2344 296.184 64.6406 295.238 63.4531C294.301 62.2578 293.832 60.6758 293.832 58.707V58.5664ZM297.219 58.8125C297.219 59.9609 297.449 60.8633 297.91 61.5195C298.371 62.168 299.004 62.4922 299.809 62.4922C300.84 62.4922 301.578 62.1055 302.023 61.332V56C301.57 55.2266 300.84 54.8398 299.832 54.8398C299.02 54.8398 298.379 55.1719 297.91 55.8359C297.449 56.5 297.219 57.4922 297.219 58.8125Z" fill="#222A31"/>
<path d="M313.871 65.2344C312.012 65.2344 310.496 64.6641 309.324 63.5234C308.16 62.3828 307.578 60.8633 307.578 58.9648V58.6367C307.578 57.3633 307.824 56.2266 308.316 55.2266C308.809 54.2188 309.504 53.4453 310.402 52.9062C311.309 52.3594 312.34 52.0859 313.496 52.0859C315.23 52.0859 316.594 52.6328 317.586 53.7266C318.586 54.8203 319.086 56.3711 319.086 58.3789V59.7617H311.012C311.121 60.5898 311.449 61.2539 311.996 61.7539C312.551 62.2539 313.25 62.5039 314.094 62.5039C315.398 62.5039 316.418 62.0312 317.152 61.0859L318.816 62.9492C318.309 63.668 317.621 64.2305 316.754 64.6367C315.887 65.0352 314.926 65.2344 313.871 65.2344ZM313.484 54.8281C312.812 54.8281 312.266 55.0547 311.844 55.5078C311.43 55.9609 311.164 56.6094 311.047 57.4531H315.758V57.1836C315.742 56.4336 315.539 55.8555 315.148 55.4492C314.758 55.0352 314.203 54.8281 313.484 54.8281Z" fill="#222A31"/>
<g filter="url(#filter0_d)">
<rect x="48.6732" y="14.0625" width="65.3463" height="65.3463" rx="5" transform="rotate(30 48.6732 14.0625)" fill="white"/>
</g>
<rect x="22.1875" y="67.8125" width="12.375" height="12.25" fill="#38B2AC" fill-opacity="0.25"/>
<rect x="16" y="38.0625" width="6" height="6" fill="#38B2AC" fill-opacity="0.25"/>
<rect x="26" y="31.0625" width="6" height="6" fill="#38B2AC" fill-opacity="0.25"/>
<g opacity="0.75">
<g clip-path="url(#clip0)">
<path d="M108.194 58.0916C105.795 55.6927 101.892 55.6929 99.4926 58.0921C98.7546 58.8308 94.0426 63.5467 93.3228 64.2672V48.0153C93.3228 46.3719 92.6828 44.827 91.5207 43.665L85.7204 37.8645C84.5584 36.7023 83.0134 36.0625 81.37 36.0625H46.1548C42.7624 36.0625 40.0025 38.8224 40.0025 42.2148V99.9102C40.0025 103.303 42.7624 106.062 46.1548 106.062H87.1704C90.5628 106.062 93.3228 103.303 93.3228 99.9102V81.6761L108.194 66.7924C110.598 64.388 110.599 60.4962 108.194 58.0916ZM81.0182 40.1641C81.4057 40.1641 82.1523 40.0969 82.8202 40.7647L88.6206 46.5652C89.2714 47.2162 89.2214 47.9294 89.2214 48.3672H81.0182V40.1641ZM89.2212 99.9102C89.2212 101.041 88.3014 101.961 87.1704 101.961H46.1548C45.024 101.961 44.104 101.041 44.104 99.9102V42.2148C44.104 41.084 45.024 40.1641 46.1548 40.1641H76.9165V50.418C76.9165 51.5505 77.8347 52.4688 78.9673 52.4688H89.2212V68.3723C89.2212 68.3723 83.1709 74.4278 83.1706 74.428L80.2717 77.327C80.0467 77.552 79.8769 77.8265 79.7763 78.1285L76.8759 86.8293C76.6302 87.5662 76.8221 88.3788 77.3714 88.9279C77.9214 89.478 78.7342 89.6688 79.47 89.4234L88.1708 86.5232C88.4728 86.4226 88.7473 86.2529 88.9724 86.0277L89.2212 85.7789V99.9102ZM84.622 78.7771L87.5222 81.6773L86.4144 82.7852L82.0641 84.2352L83.5142 79.8848L84.622 78.7771ZM90.4219 78.7764L87.5217 75.8762C89.066 74.3306 95.9251 67.4657 97.3798 66.0098L100.28 68.91L90.4219 78.7764ZM105.293 63.8927L103.179 66.0086L100.279 63.1083L102.394 60.9918C103.194 60.1921 104.494 60.1923 105.294 60.9918C106.093 61.7916 106.098 63.0881 105.293 63.8927Z" fill="#38B2AC" fill-opacity="0.1"/>
<path d="M78.9673 56.5703H50.2564C49.1238 56.5703 48.2056 57.4885 48.2056 58.6211C48.2056 59.7537 49.1238 60.6719 50.2564 60.6719H78.9673C80.0999 60.6719 81.0181 59.7537 81.0181 58.6211C81.0181 57.4885 80.0999 56.5703 78.9673 56.5703Z" fill="#38B2AC" fill-opacity="0.1"/>
<path d="M70.7642 64.7734H50.2564C49.1238 64.7734 48.2056 65.6916 48.2056 66.8242C48.2056 67.9568 49.1238 68.875 50.2564 68.875H70.7642C71.8968 68.875 72.815 67.9568 72.815 66.8242C72.815 65.6916 71.8968 64.7734 70.7642 64.7734Z" fill="#38B2AC" fill-opacity="0.1"/>
<path d="M70.7642 72.9766H50.2564C49.1238 72.9766 48.2056 73.8948 48.2056 75.0273C48.2056 76.1599 49.1238 77.0781 50.2564 77.0781H70.7642C71.8968 77.0781 72.815 76.1599 72.815 75.0273C72.815 73.8948 71.8968 72.9766 70.7642 72.9766Z" fill="#38B2AC" fill-opacity="0.1"/>
<path d="M70.7642 81.1797H50.2564C49.1238 81.1797 48.2056 82.0979 48.2056 83.2305C48.2056 84.363 49.1238 85.2812 50.2564 85.2812H70.7642C71.8968 85.2812 72.815 84.363 72.815 83.2305C72.815 82.0979 71.8968 81.1797 70.7642 81.1797Z" fill="#38B2AC" fill-opacity="0.1"/>
<path d="M78.9673 93.7578H66.6626C65.53 93.7578 64.6118 94.676 64.6118 95.8086C64.6118 96.9412 65.53 97.8594 66.6626 97.8594H78.9673C80.0999 97.8594 81.0181 96.9412 81.0181 95.8086C81.0181 94.676 80.0999 93.7578 78.9673 93.7578Z" fill="#38B2AC" fill-opacity="0.1"/>
</g>
<g clip-path="url(#clip1)">
<path d="M104.194 55.0916C101.795 52.6927 97.8922 52.6929 95.4926 55.0921C94.7546 55.8308 90.0426 60.5467 89.3228 61.2672V45.0153C89.3228 43.3719 88.6828 41.827 87.5207 40.665L81.7204 34.8645C80.5584 33.7023 79.0134 33.0625 77.37 33.0625H42.1548C38.7624 33.0625 36.0025 35.8224 36.0025 39.2148V96.9102C36.0025 100.303 38.7624 103.062 42.1548 103.062H83.1704C86.5628 103.062 89.3228 100.303 89.3228 96.9102V78.6761L104.194 63.7924C106.598 61.388 106.599 57.4962 104.194 55.0916ZM77.0182 37.1641C77.4057 37.1641 78.1523 37.0969 78.8202 37.7647L84.6206 43.5652C85.2714 44.2162 85.2214 44.9294 85.2214 45.3672H77.0182V37.1641ZM85.2212 96.9102C85.2212 98.041 84.3014 98.9609 83.1704 98.9609H42.1548C41.024 98.9609 40.104 98.041 40.104 96.9102V39.2148C40.104 38.084 41.024 37.1641 42.1548 37.1641H72.9165V47.418C72.9165 48.5505 73.8347 49.4688 74.9673 49.4688H85.2212V65.3723C85.2212 65.3723 79.1709 71.4278 79.1706 71.428L76.2717 74.327C76.0467 74.552 75.8769 74.8265 75.7763 75.1285L72.8759 83.8293C72.6302 84.5662 72.8221 85.3788 73.3714 85.9279C73.9214 86.478 74.7342 86.6688 75.47 86.4234L84.1708 83.5232C84.4728 83.4226 84.7473 83.2529 84.9724 83.0277L85.2212 82.7789V96.9102ZM80.622 75.7771L83.5222 78.6773L82.4144 79.7852L78.0641 81.2352L79.5142 76.8848L80.622 75.7771ZM86.4219 75.7764L83.5217 72.8762C85.066 71.3306 91.9251 64.4657 93.3798 63.0098L96.28 65.91L86.4219 75.7764ZM101.293 60.8927L99.1791 63.0086L96.2789 60.1083L98.3937 57.9918C99.1937 57.1921 100.494 57.1923 101.294 57.9918C102.093 58.7916 102.098 60.0881 101.293 60.8927Z" fill="black"/>
<path d="M74.9673 53.5703H46.2564C45.1238 53.5703 44.2056 54.4885 44.2056 55.6211C44.2056 56.7537 45.1238 57.6719 46.2564 57.6719H74.9673C76.0999 57.6719 77.0181 56.7537 77.0181 55.6211C77.0181 54.4885 76.0999 53.5703 74.9673 53.5703Z" fill="black"/>
<path d="M66.7642 61.7734H46.2564C45.1238 61.7734 44.2056 62.6916 44.2056 63.8242C44.2056 64.9568 45.1238 65.875 46.2564 65.875H66.7642C67.8968 65.875 68.815 64.9568 68.815 63.8242C68.815 62.6916 67.8968 61.7734 66.7642 61.7734Z" fill="black"/>
<path d="M66.7642 69.9766H46.2564C45.1238 69.9766 44.2056 70.8948 44.2056 72.0273C44.2056 73.1599 45.1238 74.0781 46.2564 74.0781H66.7642C67.8968 74.0781 68.815 73.1599 68.815 72.0273C68.815 70.8948 67.8968 69.9766 66.7642 69.9766Z" fill="black"/>
<path d="M66.7642 78.1797H46.2564C45.1238 78.1797 44.2056 79.0979 44.2056 80.2305C44.2056 81.363 45.1238 82.2812 46.2564 82.2812H66.7642C67.8968 82.2812 68.815 81.363 68.815 80.2305C68.815 79.0979 67.8968 78.1797 66.7642 78.1797Z" fill="black"/>
<path d="M74.9673 90.7578H62.6626C61.53 90.7578 60.6118 91.676 60.6118 92.8086C60.6118 93.9412 61.53 94.8594 62.6626 94.8594H74.9673C76.0999 94.8594 77.0181 93.9412 77.0181 92.8086C77.0181 91.676 76.0999 90.7578 74.9673 90.7578Z" fill="black"/>
</g>
</g>
<path d="M35.3672 14.8477H30.1406V29.0625H26.625V14.8477H21.4688V12H35.3672V14.8477Z" fill="black" fill-opacity="0.3"/>
<path d="M42.5391 29.0625C42.3828 28.7578 42.2695 28.3789 42.1992 27.9258C41.3789 28.8398 40.3125 29.2969 39 29.2969C37.7578 29.2969 36.7266 28.9375 35.9062 28.2188C35.0938 27.5 34.6875 26.5938 34.6875 25.5C34.6875 24.1562 35.1836 23.125 36.1758 22.4062C37.1758 21.6875 38.6172 21.3242 40.5 21.3164H42.0586V20.5898C42.0586 20.0039 41.9062 19.5352 41.6016 19.1836C41.3047 18.832 40.832 18.6562 40.1836 18.6562C39.6133 18.6562 39.1641 18.793 38.8359 19.0664C38.5156 19.3398 38.3555 19.7148 38.3555 20.1914H34.9688C34.9688 19.457 35.1953 18.7773 35.6484 18.1523C36.1016 17.5273 36.7422 17.0391 37.5703 16.6875C38.3984 16.3281 39.3281 16.1484 40.3594 16.1484C41.9219 16.1484 43.1602 16.543 44.0742 17.332C44.9961 18.1133 45.457 19.2148 45.457 20.6367V26.1328C45.4648 27.3359 45.6328 28.2461 45.9609 28.8633V29.0625H42.5391ZM39.7383 26.707C40.2383 26.707 40.6992 26.5977 41.1211 26.3789C41.543 26.1523 41.8555 25.8516 42.0586 25.4766V23.2969H40.793C39.0977 23.2969 38.1953 23.8828 38.0859 25.0547L38.0742 25.2539C38.0742 25.6758 38.2227 26.0234 38.5195 26.2969C38.8164 26.5703 39.2227 26.707 39.7383 26.707Z" fill="black" fill-opacity="0.3"/>
<path d="M52.8867 20.168L55.0195 16.3828H58.6406L55.0312 22.5938L58.793 29.0625H55.1602L52.8984 25.0781L50.6484 29.0625H47.0039L50.7656 22.5938L47.168 16.3828H50.8008L52.8867 20.168Z" fill="black" fill-opacity="0.3"/>
<defs>
<filter id="filter0_d" x="0" y="0.0625" width="121.265" height="121.265" filterUnits="userSpaceOnUse" color-interpolation-filters="sRGB">
<feFlood flood-opacity="0" result="BackgroundImageFix"/>
<feColorMatrix in="SourceAlpha" type="matrix" values="0 0 0 0 0 0 0 0 0 0 0 0 0 0 0 0 0 0 127 0"/>
<feOffset dy="2"/>
<feGaussianBlur stdDeviation="8"/>
<feColorMatrix type="matrix" values="0 0 0 0 0 0 0 0 0 0 0 0 0 0 0 0 0 0 0.1 0"/>
<feBlend mode="normal" in2="BackgroundImageFix" result="effect1_dropShadow"/>
<feBlend mode="normal" in="SourceGraphic" in2="effect1_dropShadow" result="shape"/>
</filter>
<clipPath id="clip0">
<rect x="40" y="36.0625" width="70" height="70" fill="white"/>
</clipPath>
<clipPath id="clip1">
<rect x="36" y="33.0625" width="70" height="70" fill="white"/>
</clipPath>
</defs>
</svg>
