<svg width="331" height="122" viewBox="0 0 331 122" fill="none" xmlns="http://www.w3.org/2000/svg">
<path d="M115.039 59.9883V66H111.523V48.9375H118.18C119.461 48.9375 120.586 49.1719 121.555 49.6406C122.531 50.1094 123.281 50.7773 123.805 51.6445C124.328 52.5039 124.59 53.4844 124.59 54.5859C124.59 56.2578 124.016 57.5781 122.867 58.5469C121.727 59.5078 120.145 59.9883 118.121 59.9883H115.039ZM115.039 57.1406H118.18C119.109 57.1406 119.816 56.9219 120.301 56.4844C120.793 56.0469 121.039 55.4219 121.039 54.6094C121.039 53.7734 120.793 53.0977 120.301 52.582C119.809 52.0664 119.129 51.8008 118.262 51.7852H115.039V57.1406Z" fill="#222A31"/>
<path d="M132.465 66.2344C130.605 66.2344 129.09 65.6641 127.918 64.5234C126.754 63.3828 126.172 61.8633 126.172 59.9648V59.6367C126.172 58.3633 126.418 57.2266 126.91 56.2266C127.402 55.2188 128.098 54.4453 128.996 53.9062C129.902 53.3594 130.934 53.0859 132.09 53.0859C133.824 53.0859 135.188 53.6328 136.18 54.7266C137.18 55.8203 137.68 57.3711 137.68 59.3789V60.7617H129.605C129.715 61.5898 130.043 62.2539 130.59 62.7539C131.145 63.2539 131.844 63.5039 132.688 63.5039C133.992 63.5039 135.012 63.0312 135.746 62.0859L137.41 63.9492C136.902 64.668 136.215 65.2305 135.348 65.6367C134.48 66.0352 133.52 66.2344 132.465 66.2344ZM132.078 55.8281C131.406 55.8281 130.859 56.0547 130.438 56.5078C130.023 56.9609 129.758 57.6094 129.641 58.4531H134.352V58.1836C134.336 57.4336 134.133 56.8555 133.742 56.4492C133.352 56.0352 132.797 55.8281 132.078 55.8281Z" fill="#222A31"/>
<path d="M146.738 56.4961C146.277 56.4336 145.871 56.4023 145.52 56.4023C144.238 56.4023 143.398 56.8359 143 57.7031V66H139.613V53.3203H142.812L142.906 54.832C143.586 53.668 144.527 53.0859 145.73 53.0859C146.105 53.0859 146.457 53.1367 146.785 53.2383L146.738 56.4961Z" fill="#222A31"/>
<path d="M155.246 62.4961C155.246 62.082 155.039 61.7578 154.625 61.5234C154.219 61.2812 153.562 61.0664 152.656 60.8789C149.641 60.2461 148.133 58.9648 148.133 57.0352C148.133 55.9102 148.598 54.9727 149.527 54.2227C150.465 53.4648 151.688 53.0859 153.195 53.0859C154.805 53.0859 156.09 53.4648 157.051 54.2227C158.02 54.9805 158.504 55.9648 158.504 57.1758H155.117C155.117 56.6914 154.961 56.293 154.648 55.9805C154.336 55.6602 153.848 55.5 153.184 55.5C152.613 55.5 152.172 55.6289 151.859 55.8867C151.547 56.1445 151.391 56.4727 151.391 56.8711C151.391 57.2461 151.566 57.5508 151.918 57.7852C152.277 58.0117 152.879 58.2109 153.723 58.3828C154.566 58.5469 155.277 58.7344 155.855 58.9453C157.645 59.6016 158.539 60.7383 158.539 62.3555C158.539 63.5117 158.043 64.4492 157.051 65.168C156.059 65.8789 154.777 66.2344 153.207 66.2344C152.145 66.2344 151.199 66.0469 150.371 65.6719C149.551 65.2891 148.906 64.7695 148.438 64.1133C147.969 63.4492 147.734 62.7344 147.734 61.9688H150.945C150.977 62.5703 151.199 63.0312 151.613 63.3516C152.027 63.6719 152.582 63.832 153.277 63.832C153.926 63.832 154.414 63.7109 154.742 63.4688C155.078 63.2188 155.246 62.8945 155.246 62.4961Z" fill="#222A31"/>
<path d="M160.203 59.543C160.203 58.2852 160.445 57.1641 160.93 56.1797C161.414 55.1953 162.109 54.4336 163.016 53.8945C163.93 53.3555 164.988 53.0859 166.191 53.0859C167.902 53.0859 169.297 53.6094 170.375 54.6562C171.461 55.7031 172.066 57.125 172.191 58.9219L172.215 59.7891C172.215 61.7344 171.672 63.2969 170.586 64.4766C169.5 65.6484 168.043 66.2344 166.215 66.2344C164.387 66.2344 162.926 65.6484 161.832 64.4766C160.746 63.3047 160.203 61.7109 160.203 59.6953V59.543ZM163.59 59.7891C163.59 60.9922 163.816 61.9141 164.27 62.5547C164.723 63.1875 165.371 63.5039 166.215 63.5039C167.035 63.5039 167.676 63.1914 168.137 62.5664C168.598 61.9336 168.828 60.9258 168.828 59.543C168.828 58.3633 168.598 57.4492 168.137 56.8008C167.676 56.1523 167.027 55.8281 166.191 55.8281C165.363 55.8281 164.723 56.1523 164.27 56.8008C163.816 57.4414 163.59 58.4375 163.59 59.7891Z" fill="#222A31"/>
<path d="M177.418 53.3203L177.523 54.7852C178.43 53.6523 179.645 53.0859 181.168 53.0859C182.512 53.0859 183.512 53.4805 184.168 54.2695C184.824 55.0586 185.16 56.2383 185.176 57.8086V66H181.789V57.8906C181.789 57.1719 181.633 56.6523 181.32 56.332C181.008 56.0039 180.488 55.8398 179.762 55.8398C178.809 55.8398 178.094 56.2461 177.617 57.0586V66H174.23V53.3203H177.418Z" fill="#222A31"/>
<path d="M195.102 66C194.945 65.6953 194.832 65.3164 194.762 64.8633C193.941 65.7773 192.875 66.2344 191.562 66.2344C190.32 66.2344 189.289 65.875 188.469 65.1562C187.656 64.4375 187.25 63.5312 187.25 62.4375C187.25 61.0938 187.746 60.0625 188.738 59.3438C189.738 58.625 191.18 58.2617 193.062 58.2539H194.621V57.5273C194.621 56.9414 194.469 56.4727 194.164 56.1211C193.867 55.7695 193.395 55.5938 192.746 55.5938C192.176 55.5938 191.727 55.7305 191.398 56.0039C191.078 56.2773 190.918 56.6523 190.918 57.1289H187.531C187.531 56.3945 187.758 55.7148 188.211 55.0898C188.664 54.4648 189.305 53.9766 190.133 53.625C190.961 53.2656 191.891 53.0859 192.922 53.0859C194.484 53.0859 195.723 53.4805 196.637 54.2695C197.559 55.0508 198.02 56.1523 198.02 57.5742V63.0703C198.027 64.2734 198.195 65.1836 198.523 65.8008V66H195.102ZM192.301 63.6445C192.801 63.6445 193.262 63.5352 193.684 63.3164C194.105 63.0898 194.418 62.7891 194.621 62.4141V60.2344H193.355C191.66 60.2344 190.758 60.8203 190.648 61.9922L190.637 62.1914C190.637 62.6133 190.785 62.9609 191.082 63.2344C191.379 63.5078 191.785 63.6445 192.301 63.6445Z" fill="#222A31"/>
<path d="M204.195 66H200.797V48H204.195V66Z" fill="#222A31"/>
<path d="M226.59 60.3164C226.457 62.1523 225.777 63.5977 224.551 64.6523C223.332 65.707 221.723 66.2344 219.723 66.2344C217.535 66.2344 215.812 65.5 214.555 64.0312C213.305 62.5547 212.68 60.5312 212.68 57.9609V56.918C212.68 55.2773 212.969 53.832 213.547 52.582C214.125 51.332 214.949 50.375 216.02 49.7109C217.098 49.0391 218.348 48.7031 219.77 48.7031C221.738 48.7031 223.324 49.2305 224.527 50.2852C225.73 51.3398 226.426 52.8203 226.613 54.7266H223.098C223.012 53.625 222.703 52.8281 222.172 52.3359C221.648 51.8359 220.848 51.5859 219.77 51.5859C218.598 51.5859 217.719 52.0078 217.133 52.8516C216.555 53.6875 216.258 54.9883 216.242 56.7539V58.043C216.242 59.8867 216.52 61.2344 217.074 62.0859C217.637 62.9375 218.52 63.3633 219.723 63.3633C220.809 63.3633 221.617 63.1172 222.148 62.625C222.688 62.125 222.996 61.3555 223.074 60.3164H226.59Z" fill="#222A31"/>
<path d="M242.785 66H239.27V58.6875H232.414V66H228.898V48.9375H232.414V55.8516H239.27V48.9375H242.785V66Z" fill="#222A31"/>
<path d="M258.723 48.9375H262.238V60.75C262.238 61.8359 261.996 62.7969 261.512 63.6328C261.035 64.4609 260.359 65.1016 259.484 65.5547C258.609 66.0078 257.621 66.2344 256.52 66.2344C254.715 66.2344 253.309 65.7773 252.301 64.8633C251.293 63.9414 250.789 62.6406 250.789 60.9609H254.328C254.328 61.7969 254.504 62.4141 254.855 62.8125C255.207 63.2109 255.762 63.4102 256.52 63.4102C257.191 63.4102 257.727 63.1797 258.125 62.7188C258.523 62.2578 258.723 61.6016 258.723 60.75V48.9375Z" fill="#222A31"/>
<path d="M264.5 59.543C264.5 58.2852 264.742 57.1641 265.227 56.1797C265.711 55.1953 266.406 54.4336 267.312 53.8945C268.227 53.3555 269.285 53.0859 270.488 53.0859C272.199 53.0859 273.594 53.6094 274.672 54.6562C275.758 55.7031 276.363 57.125 276.488 58.9219L276.512 59.7891C276.512 61.7344 275.969 63.2969 274.883 64.4766C273.797 65.6484 272.34 66.2344 270.512 66.2344C268.684 66.2344 267.223 65.6484 266.129 64.4766C265.043 63.3047 264.5 61.7109 264.5 59.6953V59.543ZM267.887 59.7891C267.887 60.9922 268.113 61.9141 268.566 62.5547C269.02 63.1875 269.668 63.5039 270.512 63.5039C271.332 63.5039 271.973 63.1914 272.434 62.5664C272.895 61.9336 273.125 60.9258 273.125 59.543C273.125 58.3633 272.895 57.4492 272.434 56.8008C271.973 56.1523 271.324 55.8281 270.488 55.8281C269.66 55.8281 269.02 56.1523 268.566 56.8008C268.113 57.4414 267.887 58.4375 267.887 59.7891Z" fill="#222A31"/>
<path d="M286.191 64.7109C285.355 65.7266 284.199 66.2344 282.723 66.2344C281.363 66.2344 280.324 65.8438 279.605 65.0625C278.895 64.2812 278.531 63.1367 278.516 61.6289V53.3203H281.902V61.5117C281.902 62.832 282.504 63.4922 283.707 63.4922C284.855 63.4922 285.645 63.0938 286.074 62.2969V53.3203H289.473V66H286.285L286.191 64.7109Z" fill="#222A31"/>
<path d="M299.152 56.4961C298.691 56.4336 298.285 56.4023 297.934 56.4023C296.652 56.4023 295.812 56.8359 295.414 57.7031V66H292.027V53.3203H295.227L295.32 54.832C296 53.668 296.941 53.0859 298.145 53.0859C298.52 53.0859 298.871 53.1367 299.199 53.2383L299.152 56.4961Z" fill="#222A31"/>
<path d="M303.91 53.3203L304.016 54.7852C304.922 53.6523 306.137 53.0859 307.66 53.0859C309.004 53.0859 310.004 53.4805 310.66 54.2695C311.316 55.0586 311.652 56.2383 311.668 57.8086V66H308.281V57.8906C308.281 57.1719 308.125 56.6523 307.812 56.332C307.5 56.0039 306.98 55.8398 306.254 55.8398C305.301 55.8398 304.586 56.2461 304.109 57.0586V66H300.723V53.3203H303.91Z" fill="#222A31"/>
<path d="M321.594 66C321.438 65.6953 321.324 65.3164 321.254 64.8633C320.434 65.7773 319.367 66.2344 318.055 66.2344C316.812 66.2344 315.781 65.875 314.961 65.1562C314.148 64.4375 313.742 63.5312 313.742 62.4375C313.742 61.0938 314.238 60.0625 315.23 59.3438C316.23 58.625 317.672 58.2617 319.555 58.2539H321.113V57.5273C321.113 56.9414 320.961 56.4727 320.656 56.1211C320.359 55.7695 319.887 55.5938 319.238 55.5938C318.668 55.5938 318.219 55.7305 317.891 56.0039C317.57 56.2773 317.41 56.6523 317.41 57.1289H314.023C314.023 56.3945 314.25 55.7148 314.703 55.0898C315.156 54.4648 315.797 53.9766 316.625 53.625C317.453 53.2656 318.383 53.0859 319.414 53.0859C320.977 53.0859 322.215 53.4805 323.129 54.2695C324.051 55.0508 324.512 56.1523 324.512 57.5742V63.0703C324.52 64.2734 324.688 65.1836 325.016 65.8008V66H321.594ZM318.793 63.6445C319.293 63.6445 319.754 63.5352 320.176 63.3164C320.598 63.0898 320.91 62.7891 321.113 62.4141V60.2344H319.848C318.152 60.2344 317.25 60.8203 317.141 61.9922L317.129 62.1914C317.129 62.6133 317.277 62.9609 317.574 63.2344C317.871 63.5078 318.277 63.6445 318.793 63.6445Z" fill="#222A31"/>
<path d="M330.688 66H327.289V48H330.688V66Z" fill="#222A31"/>
<g filter="url(#filter0_d)">
<rect x="48.6732" y="14" width="65.3463" height="65.3463" rx="5" transform="rotate(30 48.6732 14)" fill="white"/>
</g>
<g opacity="0.75">
<path d="M70.7127 48.009H54.0203C52.5491 48.009 51.3566 49.1976 51.3566 50.6643C51.3566 52.1309 52.549 53.3196 54.0203 53.3196H70.7127C72.1849 53.3196 73.3764 52.131 73.3764 50.6643C73.3763 49.1976 72.1839 48.009 70.7127 48.009Z" fill="black"/>
<path d="M77.1055 60.8425H54.0203C52.5491 60.8425 51.3566 62.0311 51.3566 63.4978C51.3566 64.9643 52.549 66.1531 54.0203 66.1531H77.1055C78.5767 66.1531 79.7692 64.9645 79.7692 63.4978C79.7692 62.0311 78.5767 60.8425 77.1055 60.8425Z" fill="black"/>
<path d="M92.9139 35.091H45.767C44.2957 35.091 43.1032 36.2796 43.1032 37.7462V62.7938H38.3975C32.865 62.7938 28.3643 67.281 28.3643 72.7951V87.5758C28.3643 93.0907 32.865 97.5771 38.3975 97.5771C38.8503 97.5771 39.2961 97.547 39.7321 97.4886H83.68C90.2397 97.4886 95.5777 92.1684 95.5777 85.6287V37.7462C95.5777 36.2796 94.3853 35.091 92.9139 35.091ZM43.1034 87.5758C43.1034 89.8513 41.4687 91.7542 39.3086 92.1781H38.3976V92.2665C35.8023 92.2665 33.6918 90.1618 33.6918 87.5756V72.7951C33.6918 70.2089 35.8032 68.1042 38.3976 68.1042H43.1035V87.5758H43.1034ZM90.2503 85.6286C90.2503 89.1787 87.2422 92.1781 83.68 92.1781H47.3039C48.024 90.8 48.4307 89.2343 48.4307 87.5758V40.4014H90.2503V85.6286Z" fill="#38B2AC" fill-opacity="0.1"/>
<path d="M89.1808 31.3696H42.0338C40.5626 31.3696 39.3701 32.5582 39.3701 34.0249V59.0724H34.6643C29.1318 59.0724 24.6312 63.5597 24.6312 69.0737V83.8544C24.6312 89.3694 29.1318 93.8557 34.6643 93.8557C35.1171 93.8557 35.5629 93.8256 35.9989 93.7673H79.9468C86.5065 93.7673 91.8445 88.4471 91.8445 81.9074V34.0249C91.8445 32.5582 90.6521 31.3696 89.1808 31.3696ZM39.3702 83.8544C39.3702 86.1299 37.7355 88.0329 35.5754 88.4567H34.6645V88.5452C32.0691 88.5452 29.9586 86.4405 29.9586 83.8543V69.0737C29.9586 66.4875 32.0701 64.3828 34.6645 64.3828H39.3703V83.8544H39.3702ZM86.5172 81.9072C86.5172 85.4573 83.509 88.4567 79.9468 88.4567H43.5708C44.2908 87.0787 44.6975 85.5129 44.6975 83.8544V36.68H86.5172V81.9072Z" fill="black"/>
<path d="M70.7127 72.8804H54.0203C52.5491 72.8804 51.3566 74.069 51.3566 75.5357C51.3566 77.0022 52.549 78.191 54.0203 78.191H70.7127C72.1849 78.191 73.3764 77.0024 73.3764 75.5357C73.3763 74.069 72.1839 72.8804 70.7127 72.8804Z" fill="black"/>
</g>
<rect x="15.1875" y="55.75" width="12.375" height="12.25" fill="#38B2AC" fill-opacity="0.25"/>
<rect x="9" y="26" width="6" height="6" fill="#38B2AC" fill-opacity="0.25"/>
<rect x="19" y="19" width="6" height="6" fill="#38B2AC" fill-opacity="0.25"/>
<path d="M49.5814 12.7031H52.2181V21.5625C52.2181 22.377 52.0364 23.0977 51.6732 23.7246C51.3157 24.3457 50.8089 24.8262 50.1526 25.166C49.4964 25.5059 48.7552 25.6758 47.929 25.6758C46.5755 25.6758 45.5208 25.333 44.765 24.6475C44.0091 23.9561 43.6312 22.9805 43.6312 21.7207H46.2855C46.2855 22.3477 46.4173 22.8105 46.681 23.1094C46.9446 23.4082 47.3607 23.5576 47.929 23.5576C48.4329 23.5576 48.8343 23.3848 49.1331 23.0391C49.4319 22.6934 49.5814 22.2012 49.5814 21.5625V12.7031Z" fill="black" fill-opacity="0.3"/>
<path d="M53.9144 20.6572C53.9144 19.7139 54.096 18.873 54.4593 18.1348C54.8226 17.3965 55.3441 16.8252 56.0237 16.4209C56.7093 16.0166 57.5032 15.8145 58.4056 15.8145C59.6888 15.8145 60.7347 16.207 61.5433 16.9922C62.3577 17.7773 62.8118 18.8438 62.9056 20.1914L62.9232 20.8418C62.9232 22.3008 62.5159 23.4727 61.7015 24.3574C60.887 25.2363 59.7943 25.6758 58.4232 25.6758C57.0521 25.6758 55.9564 25.2363 55.136 24.3574C54.3216 23.4785 53.9144 22.2832 53.9144 20.7715V20.6572ZM56.4544 20.8418C56.4544 21.7441 56.6243 22.4355 56.9642 22.916C57.304 23.3906 57.7903 23.6279 58.4232 23.6279C59.0384 23.6279 59.5189 23.3936 59.8646 22.9248C60.2103 22.4502 60.3831 21.6943 60.3831 20.6572C60.3831 19.7725 60.2103 19.0869 59.8646 18.6006C59.5189 18.1143 59.0325 17.8711 58.4056 17.8711C57.7845 17.8711 57.304 18.1143 56.9642 18.6006C56.6243 19.0811 56.4544 19.8281 56.4544 20.8418Z" fill="black" fill-opacity="0.3"/>
<path d="M70.1829 24.5332C69.556 25.2949 68.6888 25.6758 67.5814 25.6758C66.5618 25.6758 65.7825 25.3828 65.2435 24.7969C64.7103 24.2109 64.4378 23.3525 64.4261 22.2217V15.9902H66.9661V22.1338C66.9661 23.124 67.4173 23.6191 68.3196 23.6191C69.181 23.6191 69.7728 23.3203 70.095 22.7227V15.9902H72.6439V25.5H70.2532L70.1829 24.5332Z" fill="black" fill-opacity="0.3"/>
<path d="M79.9036 18.3721C79.5579 18.3252 79.2532 18.3018 78.9896 18.3018C78.0286 18.3018 77.3987 18.627 77.0999 19.2773V25.5H74.5599V15.9902H76.9593L77.0296 17.124C77.5394 16.251 78.2454 15.8145 79.1478 15.8145C79.429 15.8145 79.6927 15.8525 79.9388 15.9287L79.9036 18.3721Z" fill="black" fill-opacity="0.3"/>
<path d="M83.472 15.9902L83.5511 17.0889C84.2308 16.2393 85.1419 15.8145 86.2845 15.8145C87.2923 15.8145 88.0423 16.1104 88.5345 16.7021C89.0267 17.2939 89.2786 18.1787 89.2903 19.3564V25.5H86.7503V19.418C86.7503 18.8789 86.6331 18.4893 86.3987 18.249C86.1644 18.0029 85.7747 17.8799 85.2298 17.8799C84.515 17.8799 83.9788 18.1846 83.6214 18.7939V25.5H81.0814V15.9902H83.472Z" fill="black" fill-opacity="0.3"/>
<path d="M96.7347 25.5C96.6175 25.2715 96.5325 24.9873 96.4798 24.6475C95.8646 25.333 95.0648 25.6758 94.0804 25.6758C93.1487 25.6758 92.3753 25.4062 91.7601 24.8672C91.1507 24.3281 90.846 23.6484 90.846 22.8281C90.846 21.8203 91.2181 21.0469 91.9622 20.5078C92.7122 19.9688 93.7933 19.6963 95.2054 19.6904H96.3743V19.1455C96.3743 18.7061 96.2601 18.3545 96.0316 18.0908C95.8089 17.8271 95.4544 17.6953 94.9681 17.6953C94.5403 17.6953 94.2034 17.7979 93.9573 18.0029C93.7171 18.208 93.597 18.4893 93.597 18.8467H91.0569C91.0569 18.2959 91.2269 17.7861 91.5667 17.3174C91.9066 16.8486 92.387 16.4824 93.0081 16.2188C93.6292 15.9492 94.3265 15.8145 95.0999 15.8145C96.2718 15.8145 97.2005 16.1104 97.886 16.7021C98.5775 17.2881 98.9232 18.1143 98.9232 19.1807V23.3027C98.929 24.2051 99.055 24.8877 99.3011 25.3506V25.5H96.7347ZM94.6341 23.7334C95.0091 23.7334 95.3548 23.6514 95.6712 23.4873C95.9876 23.3174 96.222 23.0918 96.3743 22.8105V21.1758H95.4251C94.1536 21.1758 93.4769 21.6152 93.3948 22.4941L93.386 22.6436C93.386 22.96 93.4974 23.2207 93.72 23.4258C93.9427 23.6309 94.2474 23.7334 94.6341 23.7334Z" fill="black" fill-opacity="0.3"/>
<path d="M103.555 25.5H101.006V12H103.555V25.5Z" fill="black" fill-opacity="0.3"/>
<defs>
<filter id="filter0_d" x="0" y="0" width="121.265" height="121.265" filterUnits="userSpaceOnUse" color-interpolation-filters="sRGB">
<feFlood flood-opacity="0" result="BackgroundImageFix"/>
<feColorMatrix in="SourceAlpha" type="matrix" values="0 0 0 0 0 0 0 0 0 0 0 0 0 0 0 0 0 0 127 0"/>
<feOffset dy="2"/>
<feGaussianBlur stdDeviation="8"/>
<feColorMatrix type="matrix" values="0 0 0 0 0 0 0 0 0 0 0 0 0 0 0 0 0 0 0.1 0"/>
<feBlend mode="normal" in2="BackgroundImageFix" result="effect1_dropShadow"/>
<feBlend mode="normal" in="SourceGraphic" in2="effect1_dropShadow" result="shape"/>
</filter>
</defs>
</svg>
