<svg width="285" height="122" viewBox="0 0 285 122" fill="none" xmlns="http://www.w3.org/2000/svg">
<path d="M121.156 63.4844H114.992L113.82 67H110.082L116.434 49.9375H119.691L126.078 67H122.34L121.156 63.4844ZM115.941 60.6367H120.207L118.062 54.25L115.941 60.6367Z" fill="#222A31"/>
<path d="M128.375 67V56.8047H126.488V54.3203H128.375V53.2422C128.375 51.8203 128.781 50.7188 129.594 49.9375C130.414 49.1484 131.559 48.7539 133.027 48.7539C133.496 48.7539 134.07 48.832 134.75 48.9883L134.715 51.6133C134.434 51.543 134.09 51.5078 133.684 51.5078C132.41 51.5078 131.773 52.1055 131.773 53.3008V54.3203H135.945V53.7344C135.961 52.1406 136.449 50.9141 137.41 50.0547C138.379 49.1875 139.742 48.7539 141.5 48.7539C142.547 48.7539 143.832 48.9844 145.355 49.4453L144.863 52.2461C144.098 52.0195 143.5 51.875 143.07 51.8125C142.648 51.7422 142.195 51.707 141.711 51.707C140.133 51.707 139.344 52.4062 139.344 53.8047V54.3203H141.84V56.8047H139.344V67H135.945V56.8047H131.773V67H128.375ZM146.926 67H143.527V54.3203H146.926V67Z" fill="#222A31"/>
<path d="M153.312 67H149.914V49H153.312V67Z" fill="#222A31"/>
<path d="M159.688 67H156.289V54.3203H159.688V67ZM156.09 51.0391C156.09 50.5312 156.258 50.1133 156.594 49.7852C156.938 49.457 157.402 49.293 157.988 49.293C158.566 49.293 159.027 49.457 159.371 49.7852C159.715 50.1133 159.887 50.5312 159.887 51.0391C159.887 51.5547 159.711 51.9766 159.359 52.3047C159.016 52.6328 158.559 52.7969 157.988 52.7969C157.418 52.7969 156.957 52.6328 156.605 52.3047C156.262 51.9766 156.09 51.5547 156.09 51.0391Z" fill="#222A31"/>
<path d="M169.836 67C169.68 66.6953 169.566 66.3164 169.496 65.8633C168.676 66.7773 167.609 67.2344 166.297 67.2344C165.055 67.2344 164.023 66.875 163.203 66.1562C162.391 65.4375 161.984 64.5312 161.984 63.4375C161.984 62.0938 162.48 61.0625 163.473 60.3438C164.473 59.625 165.914 59.2617 167.797 59.2539H169.355V58.5273C169.355 57.9414 169.203 57.4727 168.898 57.1211C168.602 56.7695 168.129 56.5938 167.48 56.5938C166.91 56.5938 166.461 56.7305 166.133 57.0039C165.812 57.2773 165.652 57.6523 165.652 58.1289H162.266C162.266 57.3945 162.492 56.7148 162.945 56.0898C163.398 55.4648 164.039 54.9766 164.867 54.625C165.695 54.2656 166.625 54.0859 167.656 54.0859C169.219 54.0859 170.457 54.4805 171.371 55.2695C172.293 56.0508 172.754 57.1523 172.754 58.5742V64.0703C172.762 65.2734 172.93 66.1836 173.258 66.8008V67H169.836ZM167.035 64.6445C167.535 64.6445 167.996 64.5352 168.418 64.3164C168.84 64.0898 169.152 63.7891 169.355 63.4141V61.2344H168.09C166.395 61.2344 165.492 61.8203 165.383 62.9922L165.371 63.1914C165.371 63.6133 165.52 63.9609 165.816 64.2344C166.113 64.5078 166.52 64.6445 167.035 64.6445Z" fill="#222A31"/>
<path d="M179.41 51.2031V54.3203H181.578V56.8047H179.41V63.1328C179.41 63.6016 179.5 63.9375 179.68 64.1406C179.859 64.3438 180.203 64.4453 180.711 64.4453C181.086 64.4453 181.418 64.418 181.707 64.3633V66.9297C181.043 67.1328 180.359 67.2344 179.656 67.2344C177.281 67.2344 176.07 66.0352 176.023 63.6367V56.8047H174.172V54.3203H176.023V51.2031H179.41Z" fill="#222A31"/>
<path d="M189.301 67.2344C187.441 67.2344 185.926 66.6641 184.754 65.5234C183.59 64.3828 183.008 62.8633 183.008 60.9648V60.6367C183.008 59.3633 183.254 58.2266 183.746 57.2266C184.238 56.2188 184.934 55.4453 185.832 54.9062C186.738 54.3594 187.77 54.0859 188.926 54.0859C190.66 54.0859 192.023 54.6328 193.016 55.7266C194.016 56.8203 194.516 58.3711 194.516 60.3789V61.7617H186.441C186.551 62.5898 186.879 63.2539 187.426 63.7539C187.98 64.2539 188.68 64.5039 189.523 64.5039C190.828 64.5039 191.848 64.0312 192.582 63.0859L194.246 64.9492C193.738 65.668 193.051 66.2305 192.184 66.6367C191.316 67.0352 190.355 67.2344 189.301 67.2344ZM188.914 56.8281C188.242 56.8281 187.695 57.0547 187.273 57.5078C186.859 57.9609 186.594 58.6094 186.477 59.4531H191.188V59.1836C191.172 58.4336 190.969 57.8555 190.578 57.4492C190.188 57.0352 189.633 56.8281 188.914 56.8281Z" fill="#222A31"/>
<path d="M211.496 62.5234C211.496 61.8594 211.262 61.3516 210.793 61C210.324 60.6406 209.48 60.2656 208.262 59.875C207.043 59.4766 206.078 59.0859 205.367 58.7031C203.43 57.6562 202.461 56.2461 202.461 54.4727C202.461 53.5508 202.719 52.7305 203.234 52.0117C203.758 51.2852 204.504 50.7188 205.473 50.3125C206.449 49.9062 207.543 49.7031 208.754 49.7031C209.973 49.7031 211.059 49.9258 212.012 50.3711C212.965 50.8086 213.703 51.4297 214.227 52.2344C214.758 53.0391 215.023 53.9531 215.023 54.9766H211.508C211.508 54.1953 211.262 53.5898 210.77 53.1602C210.277 52.7227 209.586 52.5039 208.695 52.5039C207.836 52.5039 207.168 52.6875 206.691 53.0547C206.215 53.4141 205.977 53.8906 205.977 54.4844C205.977 55.0391 206.254 55.5039 206.809 55.8789C207.371 56.2539 208.195 56.6055 209.281 56.9336C211.281 57.5352 212.738 58.2812 213.652 59.1719C214.566 60.0625 215.023 61.1719 215.023 62.5C215.023 63.9766 214.465 65.1367 213.348 65.9805C212.23 66.8164 210.727 67.2344 208.836 67.2344C207.523 67.2344 206.328 66.9961 205.25 66.5195C204.172 66.0352 203.348 65.375 202.777 64.5391C202.215 63.7031 201.934 62.7344 201.934 61.6328H205.461C205.461 63.5156 206.586 64.457 208.836 64.457C209.672 64.457 210.324 64.2891 210.793 63.9531C211.262 63.6094 211.496 63.1328 211.496 62.5234Z" fill="#222A31"/>
<path d="M224.785 65.7109C223.949 66.7266 222.793 67.2344 221.316 67.2344C219.957 67.2344 218.918 66.8438 218.199 66.0625C217.488 65.2812 217.125 64.1367 217.109 62.6289V54.3203H220.496V62.5117C220.496 63.832 221.098 64.4922 222.301 64.4922C223.449 64.4922 224.238 64.0938 224.668 63.2969V54.3203H228.066V67H224.879L224.785 65.7109Z" fill="#222A31"/>
<path d="M233.797 54.3203L233.902 55.7383C234.801 54.6367 236.016 54.0859 237.547 54.0859C239.18 54.0859 240.301 54.7305 240.91 56.0195C241.801 54.7305 243.07 54.0859 244.719 54.0859C246.094 54.0859 247.117 54.4883 247.789 55.293C248.461 56.0898 248.797 57.293 248.797 58.9023V67H245.398V58.9141C245.398 58.1953 245.258 57.6719 244.977 57.3438C244.695 57.0078 244.199 56.8398 243.488 56.8398C242.473 56.8398 241.77 57.3242 241.379 58.293L241.391 67H238.004V58.9258C238.004 58.1914 237.859 57.6602 237.57 57.332C237.281 57.0039 236.789 56.8398 236.094 56.8398C235.133 56.8398 234.438 57.2383 234.008 58.0352V67H230.621V54.3203H233.797Z" fill="#222A31"/>
<path d="M254.586 54.3203L254.691 55.7383C255.59 54.6367 256.805 54.0859 258.336 54.0859C259.969 54.0859 261.09 54.7305 261.699 56.0195C262.59 54.7305 263.859 54.0859 265.508 54.0859C266.883 54.0859 267.906 54.4883 268.578 55.293C269.25 56.0898 269.586 57.293 269.586 58.9023V67H266.188V58.9141C266.188 58.1953 266.047 57.6719 265.766 57.3438C265.484 57.0078 264.988 56.8398 264.277 56.8398C263.262 56.8398 262.559 57.3242 262.168 58.293L262.18 67H258.793V58.9258C258.793 58.1914 258.648 57.6602 258.359 57.332C258.07 57.0039 257.578 56.8398 256.883 56.8398C255.922 56.8398 255.227 57.2383 254.797 58.0352V67H251.41V54.3203H254.586Z" fill="#222A31"/>
<path d="M275.773 67H272.375V54.3203H275.773V67ZM272.176 51.0391C272.176 50.5312 272.344 50.1133 272.68 49.7852C273.023 49.457 273.488 49.293 274.074 49.293C274.652 49.293 275.113 49.457 275.457 49.7852C275.801 50.1133 275.973 50.5312 275.973 51.0391C275.973 51.5547 275.797 51.9766 275.445 52.3047C275.102 52.6328 274.645 52.7969 274.074 52.7969C273.504 52.7969 273.043 52.6328 272.691 52.3047C272.348 51.9766 272.176 51.5547 272.176 51.0391Z" fill="#222A31"/>
<path d="M282.629 51.2031V54.3203H284.797V56.8047H282.629V63.1328C282.629 63.6016 282.719 63.9375 282.898 64.1406C283.078 64.3438 283.422 64.4453 283.93 64.4453C284.305 64.4453 284.637 64.418 284.926 64.3633V66.9297C284.262 67.1328 283.578 67.2344 282.875 67.2344C280.5 67.2344 279.289 66.0352 279.242 63.6367V56.8047H277.391V54.3203H279.242V51.2031H282.629Z" fill="#222A31"/>
<g filter="url(#filter0_d)">
<rect x="48.6732" y="14" width="65.3463" height="65.3463" rx="5" transform="rotate(30 48.6732 14)" fill="white"/>
</g>
<g opacity="0.75">
<path d="M81.9771 50.5766L76.8226 44.7936L81.9763 39.0105C82.608 38.3024 82.7638 37.2894 82.376 36.4232C81.9883 35.5571 81.1278 35 80.1788 35H62.5986C61.2684 35 60.1903 36.078 60.1903 37.4083V63.0964H65.0067V54.5871H80.1795C81.1275 54.5871 81.9888 54.0292 82.3766 53.1639C82.7646 52.2985 82.6089 51.2846 81.9771 50.5766ZM71.7989 46.3959L74.8069 49.7707H65.0069V39.8165H74.8069L71.7989 43.1912C70.9842 44.1048 70.9842 45.4824 71.7989 46.3959Z" fill="#38B2AC" fill-opacity="0.1"/>
<path d="M88.3453 101.354L64.6641 61.8585C64.2291 61.132 63.4448 60.688 62.5986 60.688C61.7524 60.688 60.9682 61.132 60.5339 61.8585L36.8528 101.354C36.4064 102.097 36.3952 103.024 36.8223 103.779C37.2494 104.533 38.0498 105 38.9175 105H86.2799C87.1477 105 87.948 104.534 88.3751 103.779C88.8023 103.024 88.7916 102.098 88.3453 101.354ZM43.1696 100.183L62.5986 67.7797L82.0276 100.183H43.1696Z" fill="#38B2AC" fill-opacity="0.1"/>
<path d="M95.8117 94.9344L79.9172 68.3624C79.4828 67.6367 78.7002 67.1911 77.8541 67.1903C77.8533 67.1903 77.8516 67.1903 77.8509 67.1903C77.0064 67.1903 76.2229 67.6334 75.7878 68.3575L70.0883 77.8299L74.2153 80.3137L77.8445 74.2801L89.4988 93.7613H82.3471V98.5778H93.7453C94.6122 98.5778 95.4126 98.1114 95.8397 97.3584C96.2676 96.604 96.2572 95.6784 95.8117 94.9344Z" fill="#38B2AC" fill-opacity="0.1"/>
<path d="M50.2146 68.3584C49.7796 67.6327 48.996 67.1888 48.1499 67.1888C48.1491 67.1888 48.1482 67.1888 48.1482 67.1888C47.3013 67.1896 46.5179 67.6343 46.0827 68.3607L30.1883 94.9327C29.7427 95.6769 29.7324 96.6033 30.1601 97.357C30.5873 98.1115 31.3876 98.578 32.2545 98.578H42.7705V93.7616H36.5012L48.1523 74.2843L51.3826 79.6676L55.5127 77.1888L50.2146 68.3584Z" fill="#38B2AC" fill-opacity="0.1"/>
<path d="M77.9771 46.5766L72.8226 40.7936L77.9763 35.0105C78.608 34.3024 78.7638 33.2894 78.376 32.4232C77.9883 31.5571 77.1278 31 76.1788 31H58.5986C57.2684 31 56.1903 32.078 56.1903 33.4083V59.0964H61.0067V50.5871H76.1795C77.1275 50.5871 77.9888 50.0292 78.3766 49.1639C78.7646 48.2985 78.6089 47.2846 77.9771 46.5766ZM67.7989 42.3959L70.8069 45.7707H61.0069V35.8165H70.8069L67.7989 39.1912C66.9842 40.1048 66.9842 41.4824 67.7989 42.3959Z" fill="black"/>
<path d="M84.3453 97.3538L60.6641 57.8585C60.2291 57.132 59.4448 56.688 58.5986 56.688C57.7524 56.688 56.9682 57.132 56.5339 57.8585L32.8528 97.3538C32.4064 98.0971 32.3952 99.0244 32.8223 99.7789C33.2494 100.533 34.0498 101 34.9175 101H82.2799C83.1477 101 83.948 100.534 84.3751 99.7789C84.8023 99.0242 84.7916 98.098 84.3453 97.3538ZM39.1696 96.1835L58.5986 63.7797L78.0276 96.1835H39.1696Z" fill="black"/>
<path d="M91.8117 90.9344L75.9172 64.3624C75.4828 63.6367 74.7002 63.1911 73.8541 63.1903C73.8533 63.1903 73.8516 63.1903 73.8509 63.1903C73.0064 63.1903 72.2229 63.6334 71.7878 64.3575L66.0883 73.8299L70.2153 76.3137L73.8445 70.2801L85.4988 89.7613H78.3471V94.5778H89.7453C90.6122 94.5778 91.4126 94.1114 91.8397 93.3584C92.2676 92.604 92.2572 91.6784 91.8117 90.9344Z" fill="black"/>
<path d="M46.2146 64.3584C45.7796 63.6327 44.996 63.1888 44.1499 63.1888C44.1491 63.1888 44.1482 63.1888 44.1482 63.1888C43.3013 63.1896 42.5179 63.6343 42.0827 64.3607L26.1883 90.9327C25.7427 91.6769 25.7324 92.6033 26.1601 93.357C26.5873 94.1115 27.3876 94.578 28.2545 94.578H38.7705V89.7616H32.5012L44.1523 70.2843L47.3826 75.6676L51.5127 73.1888L46.2146 64.3584Z" fill="black"/>
</g>
<rect x="34" y="57" width="6" height="6" fill="#38B2AC" fill-opacity="0.25"/>
<rect x="31" y="46" width="6" height="6" fill="#38B2AC" fill-opacity="0.25"/>
<rect x="41" y="39" width="6" height="6" fill="#38B2AC" fill-opacity="0.25"/>
<path d="M30.7461 30.832L34.6133 18H38.5273L32.5859 35.0625H28.918L23 18H26.9023L30.7461 30.832Z" fill="black" fill-opacity="0.3"/>
<path d="M43.8828 35.0625H40.3672V18H43.8828V35.0625Z" fill="black" fill-opacity="0.3"/>
<path d="M50.668 29.0508V35.0625H47.1523V18H53.8086C55.0898 18 56.2148 18.2344 57.1836 18.7031C58.1602 19.1719 58.9102 19.8398 59.4336 20.707C59.957 21.5664 60.2188 22.5469 60.2188 23.6484C60.2188 25.3203 59.6445 26.6406 58.4961 27.6094C57.3555 28.5703 55.7734 29.0508 53.75 29.0508H50.668ZM50.668 26.2031H53.8086C54.7383 26.2031 55.4453 25.9844 55.9297 25.5469C56.4219 25.1094 56.668 24.4844 56.668 23.6719C56.668 22.8359 56.4219 22.1602 55.9297 21.6445C55.4375 21.1289 54.7578 20.8633 53.8906 20.8477H50.668V26.2031Z" fill="black" fill-opacity="0.3"/>
<defs>
<filter id="filter0_d" x="0" y="0" width="121.265" height="121.265" filterUnits="userSpaceOnUse" color-interpolation-filters="sRGB">
<feFlood flood-opacity="0" result="BackgroundImageFix"/>
<feColorMatrix in="SourceAlpha" type="matrix" values="0 0 0 0 0 0 0 0 0 0 0 0 0 0 0 0 0 0 127 0"/>
<feOffset dy="2"/>
<feGaussianBlur stdDeviation="8"/>
<feColorMatrix type="matrix" values="0 0 0 0 0 0 0 0 0 0 0 0 0 0 0 0 0 0 0.1 0"/>
<feBlend mode="normal" in2="BackgroundImageFix" result="effect1_dropShadow"/>
<feBlend mode="normal" in="SourceGraphic" in2="effect1_dropShadow" result="shape"/>
</filter>
</defs>
</svg>
